<svg xmlns="http://www.w3.org/2000/svg" width="2560" height="2560" viewBox="0 0 2560 2560" version="1.1"><path d="M 1146.500 424.671 C 1142.650 424.824, 1126 425.426, 1109.500 426.008 C 972.137 430.855, 836.785 448.162, 726.500 474.980 C 697.476 482.038, 686.640 485.140, 652.500 496.162 C 565.089 524.384, 506.447 559.395, 484.209 596.639 C 476.433 609.661, 474.500 616.703, 474.500 632 C 474.500 643.048, 474.821 645.436, 477.267 652.556 C 478.834 657.117, 482.644 664.647, 486.050 669.913 C 493.668 681.694, 497.861 691.802, 517.193 745 C 544.875 821.174, 571.205 910.548, 586.955 981.804 C 589.107 991.537, 591.782 1003.325, 592.901 1008 C 596.502 1023.053, 607.923 1085.707, 612.041 1113 C 625.449 1201.865, 633.065 1295.481, 632.968 1370.211 C 632.901 1422.243, 628.983 1510.089, 623.455 1583.500 C 618.786 1645.500, 610.778 1704.519, 602.863 1735.254 C 601.198 1741.719, 599.986 1747.417, 600.168 1747.917 C 600.784 1749.603, 630.284 1774, 645.450 1785.365 C 693.822 1821.618, 734.337 1842.164, 774 1850.556 C 785.177 1852.920, 789.675 1853.282, 816.500 1853.972 C 833 1854.396, 846.612 1854.801, 846.750 1854.871 C 846.888 1854.942, 847 1856.391, 847 1858.091 L 847 1861.182 816.250 1860.549 C 780.144 1859.807, 783.680 1860.384, 737 1847.619 C 703.705 1838.514, 669.085 1826.657, 643 1815.425 C 622.099 1806.425, 594.640 1790.729, 579.500 1779.127 C 571 1772.613, 557.603 1759.576, 552.682 1753.031 L 548.500 1747.467 548.685 1724.224 C 549.019 1682.334, 551.937 1658.004, 562.609 1608.141 C 564.535 1599.143, 565.973 1590.368, 565.805 1588.641 L 565.500 1585.500 554 1585.764 C 519.553 1586.557, 481.982 1594.837, 437 1611.550 C 434.525 1612.470, 425.300 1615.151, 416.500 1617.509 C 340.010 1638.004, 276.672 1665.391, 228.918 1698.620 C 202.667 1716.886, 175.981 1741.431, 159.689 1762.294 L 152.907 1770.980 153.203 1807.240 L 153.500 1843.500 156.770 1851 C 165.883 1871.901, 191.681 1898.901, 229.739 1927.370 C 249.298 1942.001, 273.766 1957.975, 282.144 1961.584 C 331.748 1982.947, 433.924 2017.679, 496.500 2034.448 C 505.850 2036.954, 514.851 2039.442, 516.503 2039.978 C 519.491 2040.946, 539.263 2046.060, 565 2052.520 C 590.669 2058.964, 649.151 2071.809, 676.500 2077.010 C 679.250 2077.533, 686 2078.866, 691.500 2079.972 C 697 2081.079, 705.325 2082.637, 710 2083.435 C 714.675 2084.233, 726.150 2086.222, 735.500 2087.855 C 754.041 2091.094, 770.824 2093.777, 792.500 2096.966 C 800.200 2098.099, 808.975 2099.468, 812 2100.008 C 827.470 2102.771, 893.192 2110.900, 936.500 2115.408 C 1008.202 2122.872, 1099.402 2129.342, 1163.500 2131.514 C 1173.950 2131.868, 1184.525 2132.341, 1187 2132.566 C 1189.475 2132.790, 1222.100 2133.253, 1259.500 2133.594 C 1322.085 2134.164, 1332.556 2134.007, 1391 2131.624 C 1425.925 2130.199, 1463.725 2128.569, 1475 2128.001 C 1486.275 2127.432, 1509.675 2126.297, 1527 2125.477 C 1544.325 2124.657, 1566.150 2123.535, 1575.500 2122.985 C 1594.980 2121.838, 1622.975 2120.416, 1654 2119 C 1679.201 2117.849, 1675.225 2118.297, 1751.500 2107.997 C 1754.800 2107.552, 1761.550 2106.673, 1766.500 2106.045 C 1771.450 2105.417, 1781.125 2104.002, 1788 2102.901 C 1794.875 2101.799, 1803.425 2100.511, 1807 2100.038 C 1815.903 2098.859, 1856.933 2092.453, 1871 2090.046 C 1877.325 2088.963, 1890.600 2086.700, 1900.500 2085.018 C 1910.400 2083.335, 1924.575 2080.819, 1932 2079.427 C 1959.676 2074.239, 1997.697 2066.845, 2003.500 2065.523 C 2006.800 2064.772, 2016.250 2062.707, 2024.500 2060.935 C 2032.750 2059.163, 2046.925 2055.944, 2056 2053.781 C 2065.075 2051.619, 2076.100 2049.022, 2080.500 2048.012 C 2104.780 2042.434, 2145.232 2031.352, 2173.500 2022.533 C 2285.644 1987.547, 2358.329 1947.465, 2388.658 1903.884 C 2398.864 1889.218, 2404.195 1875.754, 2406.033 1860 C 2407.470 1847.688, 2406.391 1808.003, 2404.376 1799 C 2398.862 1774.371, 2374.198 1746.612, 2335.500 1721.479 C 2300.159 1698.526, 2244.602 1672.548, 2187 1652.042 C 2179.025 1649.203, 2171.375 1646.402, 2170 1645.819 C 2162.758 1642.744, 2102.181 1623.230, 2079 1616.504 C 2065.711 1612.648, 2054.793 1609.402, 2050.500 1608.031 C 2048.012 1607.237, 2029.281 1602.109, 2017.500 1598.998 C 2015.850 1598.562, 2007.890 1596.393, 1999.811 1594.178 C 1985.384 1590.222, 1985.010 1590.174, 1978.811 1591.482 C 1971.675 1592.989, 1962.296 1596.332, 1959.529 1598.355 C 1957.378 1599.928, 1956.707 1594.567, 1968.503 1670 C 1969.836 1678.525, 1971.880 1691.800, 1973.044 1699.500 C 1976.350 1721.361, 1976.789 1724.216, 1977.537 1728.691 C 1978.157 1732.402, 1977.757 1733.772, 1974.056 1740.633 C 1966.770 1754.141, 1959.174 1764.924, 1951.724 1772.334 C 1945.363 1778.660, 1936.849 1784.182, 1935.515 1782.848 C 1935.259 1782.592, 1935.512 1779.484, 1936.077 1775.941 C 1937.104 1769.507, 1940.856 1759.922, 1943.485 1757.016 C 1944.679 1755.697, 1944.405 1752.141, 1941.552 1731.989 C 1932.788 1670.093, 1927.926 1629.326, 1922.530 1572.500 C 1921.694 1563.700, 1920.558 1552.225, 1920.005 1547 C 1918.514 1532.907, 1915.420 1484.408, 1913.499 1445 C 1912.374 1421.932, 1912.041 1328.775, 1912.987 1302 C 1917.405 1176.996, 1929.131 1082.280, 1955.415 959.291 C 1962.812 924.676, 1978.893 865.399, 1992.523 822.500 C 1999.390 800.886, 2014.724 755.914, 2017.370 749.628 C 2019.576 744.387, 2019.514 744.187, 2015.443 743.423 C 2013.141 742.991, 2011.308 741.829, 2010.246 740.128 C 2009.344 738.683, 2008.464 737.307, 2008.290 737.071 C 2008.117 736.835, 2006.658 737.616, 2005.048 738.807 C 2003.437 739.997, 1997.328 744.163, 1991.472 748.065 C 1920.868 795.102, 1819.009 830.160, 1689.500 851.999 C 1658.037 857.305, 1598.059 865.461, 1576 867.433 C 1510.376 873.299, 1505.434 873.669, 1454.532 876.518 C 1386.158 880.345, 1270.586 881.497, 1188.500 879.171 C 1166.500 878.548, 1139.500 877.793, 1128.500 877.494 C 1117.500 877.195, 1098.600 876.509, 1086.500 875.970 C 1074.400 875.430, 1041.100 874.317, 1012.500 873.495 C 983.900 872.673, 957.350 871.888, 953.500 871.751 L 946.500 871.500 945.928 908 L 945.355 944.500 942.157 957.500 C 938.148 973.792, 938.286 964.111, 939.345 1154.500 C 940.358 1336.681, 939.946 1354.633, 930.460 1542 C 928.525 1580.225, 926.655 1617.333, 926.306 1624.463 C 925.693 1636.976, 925.534 1637.699, 921.739 1645.282 C 919.577 1649.602, 917.143 1653.392, 916.332 1653.703 C 913.940 1654.621, 895.454 1651.255, 865.048 1644.365 C 831.993 1636.874, 781.522 1624.691, 775 1622.628 C 772.525 1621.845, 766.051 1620.155, 760.613 1618.872 L 750.726 1616.540 751.356 1605.020 C 757.147 1499.127, 757.997 1471.834, 757.987 1392 C 757.976 1294.433, 755.223 1240.476, 745.436 1146 C 737.099 1065.512, 721.556 963.095, 703.171 867.500 C 699.891 850.450, 696.645 833.269, 695.957 829.320 C 695.268 825.371, 694.402 821.650, 694.032 821.052 C 693.662 820.453, 685.741 816.789, 676.429 812.909 C 608.358 784.549, 573.669 767.700, 552.266 752.603 C 546.298 748.393, 545.030 747.019, 545.016 744.750 C 545.001 742.151, 545.250 742, 549.540 742 C 552.037 742, 555.749 742.852, 557.790 743.893 C 563.722 746.919, 595.623 759.578, 611.203 765.088 C 661.254 782.789, 730.979 799.785, 797 810.377 C 840.729 817.393, 864.240 820.514, 899.500 823.983 C 978.549 831.760, 999.868 833.735, 1029 835.978 C 1149.302 845.242, 1266.981 846.048, 1389.500 838.447 C 1583.528 826.409, 1746.879 794.198, 1855.500 746.558 C 1862.650 743.422, 1876.600 736.862, 1886.500 731.981 C 1944.814 703.230, 1973.811 669.890, 1971.761 633.949 C 1971.299 625.835, 1970.840 624.297, 1965.688 613.583 C 1958.487 598.607, 1951.570 588.699, 1941.011 578.236 C 1911.318 548.810, 1860.918 522.183, 1791 498.980 C 1708.973 471.760, 1609.948 451.752, 1492 438.567 C 1424.761 431.051, 1375.686 427.685, 1294.167 424.999 C 1267.616 424.125, 1165.881 423.898, 1146.500 424.671" stroke="none" fill="#fffcfc" fill-rule="evenodd"/><path d="" stroke="none" fill="#fcfcfc" fill-rule="evenodd"/></svg>