<?xml version="1.0" standalone="no"?>
<!DOCTYPE svg PUBLIC "-//W3C//DTD SVG 20010904//EN"
 "http://www.w3.org/TR/2001/REC-SVG-20010904/DTD/svg10.dtd">
<svg version="1.0" xmlns="http://www.w3.org/2000/svg"
 width="1800.000000pt" height="1800.000000pt" viewBox="0 0 1800.000000 1800.000000"
 preserveAspectRatio="xMidYMid meet">
<metadata>
Created by potrace 1.14, written by Peter Selinger 2001-2017
</metadata>
<g transform="translate(0.000000,1800.000000) scale(0.100000,-0.100000)"
fill="#000000" stroke="none">
<path d="M8760 17529 c-704 -365 -5991 -3199 -6023 -3229 -29 -26 212 -170
928 -556 546 -293 1028 -558 1955 -1071 1075 -595 1441 -783 1530 -783 11 0
426 -205 923 -455 497 -250 911 -455 919 -455 35 0 359 170 1578 825 1142 614
1614 861 1748 915 57 22 2177 1090 2422 1220 271 143 479 262 519 297 32 28
34 33 21 46 -38 37 -1350 741 -3780 2029 -1771 939 -2500 1318 -2532 1318 -7
0 -101 -46 -208 -101z"/>
<path d="M2534 13583 c-10 -381 -8 -6501 3 -8372 l8 -1374 1545 -831 c850
-458 1955 -1052 2455 -1322 836 -451 1147 -618 2107 -1132 l337 -180 143 75
c714 377 1559 832 3108 1673 1547 840 2364 1280 3077 1656 l111 59 6 170 c12
360 29 2297 23 2713 -8 520 -21 679 -69 808 -23 63 -38 76 -108 99 -137 44
-520 235 -1150 573 -800 428 -1375 751 -1489 836 l-33 25 69 44 c140 90 472
270 1378 750 297 157 738 391 980 520 l440 235 3 1118 c3 1299 -12 2131 -40
2160 -13 12 -146 -50 -371 -174 -139 -77 -610 -320 -1047 -540 -758 -383
-1049 -535 -2930 -1529 -1123 -594 -1511 -797 -1748 -916 l-203 -102 -82 0
c-65 1 -100 7 -172 32 -249 86 -593 253 -1495 723 -140 73 -730 372 -1310 665
-1195 603 -1467 744 -2290 1187 -890 479 -1228 658 -1244 658 -2 0 -7 -138
-12 -307z m9961 -4936 c879 -441 2184 -1157 2312 -1271 l36 -30 -40 -36 c-54
-48 -207 -137 -458 -267 -115 -61 -300 -159 -410 -220 -239 -132 -1015 -546
-1955 -1043 -377 -199 -950 -505 -1275 -680 -1122 -603 -1694 -900 -1735 -900
-49 0 -2427 1258 -2834 1498 -47 29 -83 57 -89 72 -17 41 -21 1069 -7 2050 7
492 14 896 15 898 4 4 1843 -975 2595 -1381 l315 -170 70 37 c38 20 221 115
405 210 481 248 1026 544 1665 901 421 235 780 417 940 476 88 33 110 26 450
-144z"/>
</g>
</svg>
