<?xml version="1.0" standalone="no"?>
<!DOCTYPE svg PUBLIC "-//W3C//DTD SVG 20010904//EN"
 "http://www.w3.org/TR/2001/REC-SVG-20010904/DTD/svg10.dtd">
<svg version="1.0" xmlns="http://www.w3.org/2000/svg"
 width="2560.000000pt" height="2560.000000pt" viewBox="0 0 2560.000000 2560.000000"
 preserveAspectRatio="xMidYMid meet">
<metadata>
Created by potrace 1.14, written by Peter Selinger 2001-2017
</metadata>
<g transform="translate(0.000000,2560.000000) scale(0.100000,-0.100000)"
fill="#000000" stroke="none">
<path d="M11227 20413 c-1 -1 -99 -4 -217 -7 -118 -3 -255 -8 -305 -11 -49 -3
-142 -7 -205 -10 -63 -3 -146 -8 -185 -10 -38 -3 -106 -7 -150 -10 -44 -3
-105 -7 -135 -10 -30 -2 -93 -7 -140 -11 -47 -3 -94 -8 -105 -11 -11 -2 -58
-6 -105 -9 -47 -2 -98 -6 -115 -9 -16 -2 -59 -7 -95 -10 -36 -3 -75 -7 -86 -9
-12 -2 -45 -7 -75 -11 -54 -6 -159 -19 -254 -31 -27 -3 -58 -8 -69 -10 -10 -2
-44 -6 -75 -9 -31 -4 -63 -8 -71 -10 -8 -2 -37 -7 -65 -11 -27 -3 -59 -8 -70
-10 -20 -4 -58 -10 -108 -18 -34 -6 -134 -24 -167 -31 -14 -3 -43 -7 -65 -10
-22 -3 -71 -12 -110 -21 -38 -8 -81 -17 -95 -20 -26 -4 -91 -17 -100 -19 -3 0
-23 -5 -45 -10 -22 -5 -42 -9 -45 -10 -17 -4 -69 -16 -88 -20 -13 -2 -32 -7
-42 -10 -10 -3 -28 -8 -39 -10 -12 -3 -29 -7 -38 -9 -84 -20 -118 -29 -183
-47 -41 -11 -84 -22 -95 -25 -72 -18 -190 -55 -208 -65 -10 -5 -22 -7 -27 -4
-6 4 -10 2 -10 -2 0 -5 -8 -9 -18 -10 -38 -3 -448 -157 -514 -193 -10 -6 -25
-10 -33 -10 -8 0 -15 -4 -15 -10 0 -5 -3 -9 -7 -8 -14 3 -188 -87 -342 -177
-15 -9 -130 -90 -170 -120 -36 -26 -201 -193 -201 -202 0 -6 -7 -14 -16 -17
-8 -3 -12 -10 -9 -16 3 -5 2 -10 -3 -10 -10 0 -74 -126 -87 -172 -2 -5 -3 -9
-5 -10 -6 -8 -17 -84 -21 -143 -1 -24 15 -113 27 -147 7 -21 10 -38 7 -38 -3
0 2 -9 12 -20 10 -11 15 -20 12 -20 -9 0 27 -64 68 -122 19 -25 45 -77 60
-115 25 -65 33 -85 54 -135 6 -13 28 -75 51 -138 23 -63 45 -124 50 -135 17
-43 44 -121 46 -135 2 -8 7 -23 13 -35 21 -44 79 -223 74 -229 -4 -3 -1 -6 5
-6 7 0 12 -6 12 -14 0 -7 14 -53 30 -102 17 -49 32 -96 35 -104 2 -8 16 -53
30 -100 15 -47 28 -89 29 -95 2 -5 5 -17 8 -25 9 -24 29 -94 32 -110 2 -8 6
-23 10 -32 4 -9 8 -22 10 -30 1 -7 4 -17 7 -23 6 -10 18 -52 25 -94 3 -14 8
-29 12 -35 3 -6 8 -20 10 -31 5 -27 8 -37 16 -56 4 -9 8 -27 10 -40 2 -13 9
-37 15 -53 6 -16 9 -31 6 -34 -2 -3 -1 -10 4 -16 6 -7 12 -23 15 -36 3 -14 10
-45 17 -70 6 -25 13 -56 15 -69 3 -14 8 -29 12 -35 3 -6 8 -22 10 -36 1 -14 7
-38 13 -55 9 -26 14 -49 23 -100 1 -5 5 -16 10 -23 4 -7 6 -16 3 -19 -3 -2 1
-22 8 -44 8 -21 12 -39 10 -39 -2 0 2 -18 10 -40 8 -22 13 -40 11 -40 -2 0 2
-20 10 -45 7 -25 10 -45 7 -45 -3 0 -1 -6 4 -12 5 -7 10 -29 12 -48 2 -19 6
-37 10 -40 3 -3 7 -14 7 -25 1 -19 4 -35 19 -95 3 -14 7 -34 9 -45 2 -11 6
-33 10 -50 3 -16 8 -39 10 -50 19 -96 48 -244 52 -260 3 -11 7 -33 9 -50 2
-16 7 -43 10 -60 2 -16 7 -41 9 -55 3 -14 5 -25 6 -25 1 0 4 -11 5 -25 2 -14
6 -43 9 -65 3 -22 8 -51 12 -65 5 -24 10 -56 18 -125 2 -16 6 -37 9 -45 3 -8
5 -22 5 -30 0 -8 2 -29 6 -46 3 -17 8 -47 11 -67 3 -20 7 -54 10 -74 3 -20 7
-48 9 -62 10 -56 20 -146 18 -153 -1 -5 1 -8 5 -8 5 0 9 -19 9 -43 1 -39 4
-71 18 -187 3 -25 8 -72 12 -105 3 -33 8 -82 11 -110 3 -27 6 -65 6 -82 1 -18
4 -33 7 -33 3 0 5 -19 6 -43 1 -39 8 -138 18 -252 3 -27 7 -88 10 -135 3 -47
6 -85 6 -85 1 0 5 -59 15 -250 25 -475 25 -1031 0 -1525 -13 -263 -16 -325
-20 -405 -3 -49 -8 -126 -11 -170 -3 -44 -7 -114 -9 -155 -3 -72 -8 -145 -21
-310 -3 -41 -7 -97 -8 -123 -2 -26 -6 -50 -9 -54 -4 -3 -2 -14 4 -24 5 -11 6
-19 1 -19 -4 0 -8 -17 -8 -37 -1 -21 -4 -65 -7 -98 -4 -33 -9 -89 -13 -125 -3
-36 -7 -87 -10 -115 -2 -27 -6 -66 -8 -85 -3 -19 -7 -66 -11 -105 -6 -70 -12
-124 -20 -180 -5 -33 -14 -114 -19 -160 -2 -16 -6 -48 -10 -71 -4 -23 -8 -59
-11 -80 -2 -21 -7 -55 -10 -74 -3 -19 -8 -51 -10 -70 -2 -19 -6 -44 -8 -55 -3
-11 -8 -40 -12 -65 -4 -25 -9 -52 -10 -60 -5 -31 -19 -105 -20 -110 0 -3 -4
-21 -8 -40 -14 -69 -46 -217 -52 -240 -28 -105 -29 -101 12 -134 20 -17 49
-41 63 -53 14 -13 30 -26 35 -31 6 -4 51 -41 100 -81 50 -40 98 -79 108 -87 9
-8 21 -14 26 -14 5 0 11 -3 13 -7 4 -11 70 -61 148 -113 36 -24 67 -47 68 -52
2 -4 8 -8 13 -8 5 0 31 -15 57 -32 91 -62 284 -173 295 -170 4 1 7 -2 7 -8 0
-5 9 -10 20 -10 11 0 20 -4 20 -10 0 -5 4 -10 10 -10 5 0 38 -13 72 -30 34
-16 67 -30 75 -30 7 0 13 -4 13 -10 0 -5 6 -10 14 -10 13 0 103 -33 136 -49 8
-5 39 -14 68 -21 28 -8 52 -17 52 -21 0 -4 8 -6 17 -5 9 2 37 -3 61 -10 24 -8
48 -11 53 -8 5 3 9 1 9 -3 0 -5 8 -9 18 -10 9 -1 35 -4 57 -7 138 -19 222 -22
430 -11 193 9 214 11 221 18 3 3 18 1 33 -4 23 -8 28 -16 28 -44 0 -28 -4 -35
-21 -36 -12 -1 -43 -2 -71 -4 -27 -1 -108 -6 -180 -10 -71 -4 -152 -9 -180
-11 -27 -1 -50 -3 -50 -4 0 -1 -22 -2 -50 -2 -56 0 -96 5 -200 27 -38 8 -85
17 -104 20 -19 3 -52 10 -75 16 -23 6 -54 12 -71 15 -16 2 -43 8 -60 14 -16 5
-42 11 -58 14 -15 3 -37 8 -50 12 -12 4 -26 8 -32 9 -25 3 -91 18 -100 24 -13
7 -43 14 -72 15 -13 1 -23 4 -23 9 0 4 -8 7 -17 7 -16 0 -58 12 -118 34 -16 6
-34 11 -40 11 -19 0 -310 100 -313 108 -2 4 -14 7 -26 7 -12 0 -26 4 -31 8 -6
5 -37 19 -70 32 -93 36 -368 172 -425 210 -15 10 -64 43 -158 107 -30 20 -56
42 -59 50 -3 7 -9 13 -14 13 -5 0 -44 35 -87 79 -92 94 -103 107 -95 115 4 3
1 6 -5 6 -7 0 -20 13 -30 29 -15 25 -18 50 -16 148 3 143 13 383 20 438 2 22
6 63 8 90 2 28 5 50 6 50 2 0 6 28 14 110 3 28 6 50 7 50 0 0 3 14 5 30 3 29
11 70 14 70 1 0 3 16 5 35 4 42 17 110 31 170 3 14 7 39 10 55 7 45 12 70 14
70 1 0 4 13 14 65 2 14 5 25 6 25 2 0 8 28 14 65 3 14 12 51 21 83 23 82 14
111 -30 102 -11 -2 -51 -7 -89 -10 -37 -3 -72 -8 -77 -11 -5 -3 -9 0 -9 6 0 6
-5 8 -12 3 -14 -8 -19 -9 -88 -19 -25 -3 -47 -8 -50 -9 -3 -2 -24 -6 -46 -9
-50 -8 -119 -23 -119 -26 0 -2 -15 -5 -55 -13 -14 -3 -45 -11 -70 -18 -25 -7
-48 -13 -52 -15 -5 -1 -10 -3 -13 -4 -3 -1 -8 -3 -12 -4 -58 -13 -113 -31
-113 -37 0 -4 -8 -6 -17 -4 -10 1 -22 -1 -28 -5 -5 -4 -39 -17 -75 -29 -36
-13 -74 -27 -85 -31 -11 -5 -45 -19 -75 -30 -58 -23 -69 -28 -140 -58 -25 -11
-92 -34 -150 -52 -58 -17 -112 -34 -120 -37 -8 -3 -19 -7 -25 -9 -5 -1 -50
-17 -100 -34 -49 -18 -94 -33 -100 -34 -5 -2 -26 -9 -45 -18 -19 -8 -53 -21
-75 -28 -22 -7 -44 -15 -50 -19 -5 -3 -12 -6 -15 -6 -13 -1 -106 -39 -117 -48
-7 -5 -13 -7 -13 -3 0 4 -15 -1 -32 -11 -18 -10 -37 -18 -43 -19 -12 -1 -66
-24 -163 -70 -40 -19 -79 -34 -86 -34 -8 0 -19 -7 -26 -15 -7 -8 -16 -12 -21
-9 -5 3 -9 0 -9 -7 0 -7 -3 -10 -6 -7 -3 4 -39 -11 -80 -33 -41 -22 -74 -36
-74 -32 0 5 -4 3 -8 -2 -4 -6 -20 -17 -37 -25 -16 -8 -61 -32 -100 -53 -38
-22 -99 -55 -135 -74 -36 -20 -72 -42 -81 -49 -8 -8 -18 -14 -22 -14 -9 0
-142 -84 -145 -92 -2 -5 -8 -8 -13 -8 -14 0 -244 -160 -280 -195 -9 -8 -21
-15 -27 -15 -5 0 -12 -3 -14 -8 -1 -4 -25 -25 -53 -47 -27 -22 -56 -46 -63
-52 -7 -7 -18 -13 -23 -13 -6 0 -8 -4 -4 -9 3 -5 -3 -12 -14 -16 -22 -7 -312
-291 -395 -387 -32 -37 -83 -100 -114 -140 -51 -66 -56 -78 -58 -128 -1 -30
-3 -55 -4 -55 -1 0 -3 -52 -5 -115 -2 -63 -7 -169 -11 -235 -11 -209 -6 -281
20 -348 7 -18 17 -41 21 -52 5 -11 7 -23 7 -28 -1 -4 3 -7 8 -7 6 0 10 -6 10
-14 0 -8 7 -22 16 -30 8 -9 12 -16 7 -16 -4 0 -3 -4 2 -8 6 -4 27 -32 48 -62
44 -65 76 -102 161 -190 66 -68 184 -174 220 -199 12 -8 29 -24 38 -34 10 -11
18 -17 18 -13 0 4 11 -3 25 -16 30 -28 31 -29 137 -105 47 -35 91 -63 96 -63
5 0 12 -7 16 -15 3 -8 12 -15 20 -15 8 0 16 -3 18 -8 1 -4 41 -32 88 -61 47
-30 88 -59 92 -65 4 -6 8 -8 8 -3 0 4 22 -9 50 -28 27 -19 54 -35 59 -35 5 0
16 -6 23 -13 10 -9 259 -100 303 -110 6 -2 16 -6 23 -10 6 -5 12 -5 12 -1 0 3
7 1 15 -6 8 -7 15 -10 15 -6 0 4 13 0 30 -9 16 -8 38 -15 50 -15 11 0 20 -4
20 -8 0 -5 6 -9 13 -9 16 0 158 -42 179 -54 10 -5 26 -9 36 -9 10 0 23 -5 30
-12 7 -7 12 -9 12 -5 0 4 16 1 35 -7 19 -8 35 -12 35 -9 0 3 7 0 15 -7 8 -7
15 -10 15 -7 0 3 15 0 34 -8 18 -8 36 -11 40 -8 3 4 6 2 6 -3 0 -6 10 -11 23
-11 12 -1 60 -13 107 -28 86 -26 275 -79 340 -95 19 -4 62 -15 94 -24 33 -9
69 -18 80 -21 12 -2 21 -4 21 -6 0 -1 9 -3 20 -5 11 -1 72 -16 135 -33 63 -16
126 -32 140 -35 14 -3 36 -8 50 -11 14 -4 38 -8 53 -11 16 -2 33 -6 38 -10 5
-3 22 -8 37 -10 15 -3 38 -7 52 -11 14 -3 35 -5 48 -5 12 0 22 -4 22 -8 0 -4
21 -11 48 -14 26 -4 54 -9 62 -11 8 -2 30 -6 49 -10 19 -3 38 -8 43 -11 5 -3
21 -7 36 -9 39 -5 112 -19 167 -32 17 -3 37 -7 45 -9 8 -1 26 -5 40 -8 22 -5
78 -15 120 -20 9 -1 20 -5 25 -8 6 -3 24 -5 42 -4 17 0 29 -3 26 -7 -3 -5 3
-7 13 -6 11 2 28 0 39 -4 11 -3 42 -9 69 -12 27 -3 51 -7 55 -9 3 -2 26 -7 51
-10 25 -3 56 -8 70 -11 60 -12 87 -16 113 -17 15 -1 27 -4 27 -7 0 -4 12 -7
28 -6 15 0 41 -2 57 -7 29 -7 84 -15 155 -23 32 -4 65 -9 130 -21 24 -4 97
-14 150 -19 14 -2 25 -4 25 -5 0 -1 11 -3 25 -5 44 -4 144 -16 175 -21 35 -5
80 -10 150 -18 28 -3 66 -8 85 -11 19 -2 60 -7 90 -10 30 -3 74 -8 97 -10 23
-3 68 -7 100 -10 32 -3 74 -8 93 -10 52 -7 148 -17 205 -20 28 -2 50 -4 50 -5
0 -1 23 -3 50 -5 28 -2 77 -6 110 -9 125 -12 221 -19 258 -20 20 0 37 -3 37
-6 0 -3 33 -5 73 -6 39 0 126 -4 192 -9 66 -4 150 -8 187 -9 38 -1 68 -3 68
-6 0 -3 24 -5 53 -4 28 1 57 -3 64 -8 6 -5 13 -5 16 -1 4 6 102 9 102 3 0 -1
41 -3 90 -5 50 -1 176 -6 280 -9 105 -4 197 -9 207 -12 9 -2 19 0 23 6 4 6 13
7 23 1 9 -4 325 -7 702 -6 629 3 852 7 1170 20 63 3 160 7 215 10 131 5 304
14 385 20 36 2 111 6 166 10 56 3 126 7 155 10 30 2 97 7 149 10 52 3 117 8
145 10 96 10 150 16 194 20 24 2 62 6 85 9 23 3 68 8 101 11 33 4 71 8 85 10
14 2 48 7 75 10 28 4 61 8 75 10 14 2 50 7 80 10 30 3 66 8 80 10 31 5 189 25
250 31 25 3 56 7 70 10 14 3 41 7 60 9 57 7 146 19 220 30 25 4 59 9 75 10 30
3 82 10 145 20 19 3 49 7 65 9 17 2 53 7 80 11 28 4 59 9 70 10 11 1 20 3 20
4 0 1 23 4 50 7 97 10 120 13 120 14 0 2 29 6 95 14 30 4 84 11 120 17 75 11
85 13 200 28 47 7 99 14 115 17 17 3 44 7 60 9 17 2 44 5 60 8 47 8 128 20
150 22 11 2 40 6 65 9 25 4 56 9 70 11 14 2 43 6 65 9 22 4 58 9 80 12 22 3
54 7 70 9 217 31 230 33 230 35 0 1 20 4 45 6 64 8 85 11 85 13 0 2 11 4 25 7
14 2 36 7 50 11 14 4 30 8 35 9 6 1 13 3 18 4 32 11 102 24 111 22 4 -2 13 2
20 7 6 5 25 11 41 14 17 3 82 17 145 32 63 15 121 28 128 28 6 0 12 3 12 7 0
3 8 6 18 7 9 0 28 4 42 7 50 14 75 19 93 20 9 0 17 3 17 6 0 4 6 7 13 8 12 0
40 6 82 17 46 11 214 55 267 69 31 8 68 17 82 20 14 3 29 7 34 10 5 3 19 7 33
10 13 3 42 10 64 16 22 6 49 13 59 15 10 2 33 9 51 15 18 6 42 13 54 15 29 7
47 11 111 30 30 9 62 17 70 19 8 2 71 20 140 41 69 20 133 38 143 40 10 2 57
16 105 31 48 15 92 28 98 30 15 3 181 53 229 69 22 8 121 39 220 71 99 31 186
61 193 67 6 5 12 7 12 4 0 -3 64 17 143 44 78 28 169 60 202 71 33 11 65 25
71 30 7 5 16 8 20 7 5 -1 27 6 49 16 22 9 47 19 55 20 8 2 16 4 18 5 1 2 5 3
10 5 4 1 21 7 37 14 17 7 35 14 40 15 6 1 26 9 45 18 34 16 55 23 75 28 6 1
19 7 30 13 11 6 25 12 30 13 6 1 31 11 55 22 25 11 90 39 145 62 97 41 129 55
245 107 98 44 344 166 380 188 19 12 38 23 42 24 21 5 375 216 399 237 8 8 21
14 27 14 7 0 12 4 12 8 0 4 15 16 33 27 17 10 34 21 37 24 3 3 43 35 90 71 47
35 91 69 98 75 47 37 240 229 280 279 130 163 216 332 247 487 23 109 23 244
0 409 -7 54 -14 110 -19 165 -13 137 -52 246 -132 367 -80 122 -272 303 -444
418 -12 8 -39 26 -59 40 -20 14 -47 31 -61 38 -14 7 -41 22 -60 34 -90 55
-386 207 -415 214 -5 1 -44 18 -85 37 -41 19 -109 49 -150 65 -181 73 -307
121 -333 127 -15 4 -30 11 -33 16 -3 5 -15 9 -27 9 -13 0 -34 8 -47 17 -14 10
-26 16 -28 14 -2 -3 -356 109 -407 129 -21 8 -122 38 -240 71 -38 11 -77 22
-85 26 -8 3 -24 8 -35 10 -11 2 -31 8 -45 13 -14 5 -36 12 -50 14 -14 3 -26 5
-27 7 -2 1 -6 2 -10 3 -16 3 -179 48 -193 54 -8 3 -23 6 -32 7 -10 2 -20 4
-23 5 -3 1 -9 4 -15 5 -5 1 -11 3 -12 4 -2 2 -12 4 -24 6 -11 3 -47 12 -80 21
-32 8 -93 24 -134 34 -41 11 -92 23 -112 28 -21 6 -38 8 -38 5 0 -3 -6 -1 -12
5 -22 17 -95 5 -170 -29 -40 -18 -75 -34 -77 -35 -2 -2 2 -29 8 -61 6 -32 13
-67 15 -78 2 -11 11 -54 19 -95 9 -41 18 -86 21 -100 14 -75 27 -137 35 -169
6 -20 12 -49 15 -66 2 -16 12 -66 21 -110 10 -44 19 -87 20 -95 2 -8 4 -17 5
-20 1 -3 2 -8 2 -11 -1 -3 5 -28 12 -55 7 -27 12 -57 10 -67 -1 -9 2 -17 7
-17 5 0 8 -3 7 -7 -1 -7 3 -36 17 -113 2 -8 8 -33 13 -55 18 -69 20 -113 6
-139 -7 -15 -10 -26 -6 -26 3 0 1 -5 -6 -12 -7 -7 -12 -20 -12 -29 0 -10 -5
-19 -10 -21 -6 -2 -12 -13 -13 -26 0 -12 -4 -22 -8 -22 -5 0 -14 -22 -18 -45
0 -3 -23 -41 -51 -85 -52 -85 -125 -170 -145 -170 -7 0 -18 -7 -25 -15 -21
-26 -28 -7 -25 63 5 82 6 88 42 173 15 37 13 58 -12 172 -3 12 -7 36 -9 52 -2
17 -7 37 -10 45 -3 8 -7 31 -10 50 -3 19 -20 107 -36 195 -38 194 -37 191 -44
240 -2 22 -7 47 -10 55 -5 15 -13 59 -21 115 -2 17 -7 41 -10 55 -4 14 -8 36
-10 50 -11 66 -14 87 -19 110 -5 30 -20 121 -21 135 -1 6 -4 26 -8 45 -4 19
-9 53 -12 75 -4 22 -8 47 -10 55 -2 8 -7 35 -10 60 -9 75 -14 104 -21 135 -3
17 -8 46 -9 65 -2 19 -4 35 -5 35 -3 0 -10 40 -14 85 -3 25 -5 45 -6 45 -1 0
-3 18 -6 40 -2 22 -7 54 -9 70 -3 17 -8 46 -10 65 -8 53 -14 101 -20 140 -3
19 -7 55 -10 80 -3 25 -7 55 -9 67 -3 12 -7 48 -11 80 -3 32 -9 78 -12 103 -3
25 -6 60 -7 78 0 17 -3 32 -6 32 -3 0 -5 17 -6 38 -2 67 -7 117 -16 134 -5 10
-4 19 2 23 6 4 7 13 1 24 -6 10 -10 26 -9 37 0 10 -2 48 -6 84 -10 96 -15 147
-21 225 -3 39 -7 97 -10 130 -12 147 -14 175 -20 265 -21 362 -37 706 -35 790
0 25 0 52 0 60 -4 74 -1 852 4 980 6 177 15 365 16 365 1 0 3 32 5 70 6 106
13 213 19 280 3 33 8 86 11 118 3 32 8 89 11 125 4 37 7 84 8 104 0 21 3 38 6
38 3 0 6 19 6 43 2 42 7 90 20 197 4 30 8 67 8 83 1 15 3 27 6 27 3 0 5 15 6
33 0 17 3 48 7 67 3 19 9 58 12 85 3 28 8 64 10 80 3 17 7 48 10 70 4 22 8 47
10 55 3 8 7 35 10 60 3 25 7 56 10 70 10 51 16 86 20 115 2 17 6 41 10 55 3
14 7 40 10 59 2 18 7 41 9 50 3 9 7 32 10 51 3 19 8 46 11 60 3 14 7 36 10 50
3 14 7 36 10 50 7 30 14 67 19 95 1 11 6 31 9 45 30 125 37 162 32 169 -3 5
-2 11 3 13 7 3 27 79 57 223 2 11 18 72 35 135 17 63 33 124 35 135 3 11 11
43 19 70 17 53 16 57 -15 62 -12 2 -29 13 -39 25 l-18 23 -63 -50 c-35 -27
-65 -53 -67 -57 -2 -5 -7 -8 -12 -8 -5 0 -44 -25 -88 -55 -44 -30 -85 -55 -90
-55 -6 0 -17 -6 -24 -12 -21 -19 -88 -57 -231 -130 -56 -29 -105 -51 -109 -50
-5 1 -8 -2 -8 -8 0 -6 -3 -9 -7 -8 -5 1 -35 -11 -68 -27 -33 -15 -68 -29 -78
-30 -11 -1 -22 -6 -25 -11 -4 -5 -32 -18 -62 -28 -30 -10 -59 -23 -64 -27 -6
-5 -16 -9 -22 -9 -7 0 -25 -5 -41 -12 -15 -6 -30 -12 -33 -12 -3 -1 -18 -6
-35 -13 -31 -11 -54 -19 -67 -22 -4 -1 -28 -10 -53 -21 -25 -11 -45 -17 -45
-15 0 2 -31 -7 -70 -20 -38 -13 -70 -21 -70 -18 0 3 -6 1 -13 -5 -7 -6 -24
-13 -37 -16 -14 -3 -68 -17 -120 -31 -52 -15 -104 -29 -115 -32 -11 -3 -29 -6
-40 -8 -11 -1 -31 -7 -45 -13 -14 -5 -28 -8 -32 -5 -5 2 -8 0 -8 -4 0 -5 -10
-9 -22 -10 -24 -1 -71 -10 -100 -19 -10 -3 -30 -8 -45 -10 -16 -3 -46 -10 -68
-15 -44 -11 -64 -15 -140 -29 -27 -5 -60 -11 -71 -14 -12 -2 -39 -7 -60 -10
-22 -4 -48 -9 -58 -12 -10 -4 -35 -8 -55 -9 -20 -2 -36 -4 -36 -5 0 -3 -42
-10 -88 -15 -26 -2 -51 -6 -55 -9 -4 -2 -35 -8 -67 -11 -33 -4 -69 -9 -80 -11
-11 -3 -56 -9 -100 -15 -44 -5 -93 -12 -110 -16 -16 -3 -48 -6 -70 -8 -22 -2
-40 -4 -40 -5 0 -1 -7 -2 -125 -14 -36 -4 -81 -9 -100 -11 -19 -3 -61 -7 -93
-10 -32 -2 -77 -7 -100 -10 -23 -3 -71 -7 -107 -10 -63 -4 -118 -9 -244 -20
-33 -3 -61 -7 -64 -10 -3 -2 -13 0 -23 6 -11 5 -19 6 -19 2 0 -5 -19 -9 -42
-9 -24 -1 -95 -4 -158 -8 -244 -14 -359 -19 -457 -20 -57 -1 -103 -3 -103 -6
0 -8 -404 -13 -950 -13 -561 0 -940 6 -940 13 0 3 -66 6 -148 7 -148 1 -401 8
-632 18 -69 3 -200 7 -292 9 -92 3 -172 7 -177 11 -5 3 -12 1 -16 -5 -4 -6
-12 -7 -18 -3 -7 4 -55 8 -107 9 -52 1 -171 5 -265 9 -93 3 -216 8 -271 9
l-102 3 4 -291 4 -291 -33 -155 -34 -155 3 -350 c2 -192 6 -467 9 -610 3 -143
5 -269 5 -280 -2 -39 -1 -111 2 -203 2 -56 -1 -92 -7 -92 -7 0 -7 -3 0 -8 24
-17 27 -2344 3 -2368 -4 -3 -2 -18 2 -34 4 -16 6 -31 4 -33 -5 -5 -15 -275
-18 -474 0 -57 -3 -103 -6 -103 -3 0 -6 -51 -6 -113 -1 -114 -12 -442 -14
-442 -2 0 -12 -308 -14 -412 0 -51 -3 -93 -6 -93 -3 0 -6 -37 -7 -83 -3 -168
-10 -317 -16 -323 -3 -3 -2 -17 3 -30 5 -13 6 -24 2 -24 -4 0 -7 -30 -6 -68 0
-37 -4 -75 -9 -85 -5 -10 -11 -31 -13 -45 -3 -15 -9 -28 -15 -30 -5 -2 -9 -8
-9 -14 0 -5 -9 -23 -21 -39 -11 -16 -17 -30 -12 -30 4 -1 -10 -5 -32 -8 -22
-4 -44 -5 -50 -2 -5 3 -21 6 -35 7 -14 1 -47 5 -75 9 -27 4 -61 9 -75 11 -14
1 -27 3 -30 4 -3 1 -9 3 -15 5 -5 1 -12 3 -15 4 -3 1 -23 4 -45 7 -59 8 -80
11 -80 14 0 1 -11 3 -25 4 -14 2 -38 6 -55 10 -16 3 -42 9 -57 11 -16 3 -38 7
-50 10 -13 2 -36 7 -53 10 -16 3 -50 10 -75 15 -25 5 -56 12 -70 14 -14 2 -47
9 -75 16 -27 6 -61 13 -75 15 -14 2 -35 7 -47 10 -28 6 -53 12 -118 25 -63 13
-89 19 -117 25 -13 3 -48 11 -78 16 -61 12 -64 13 -100 22 -43 11 -84 19 -102
19 -23 -1 -36 25 -32 63 5 61 16 243 19 335 2 52 4 95 5 95 1 0 3 38 6 85 2
47 6 130 8 185 7 124 17 353 20 461 1 44 6 86 10 92 4 7 2 12 -4 12 -6 0 -8 4
-5 10 10 17 15 330 15 935 -1 697 -3 925 -10 925 -3 0 -6 33 -6 73 -3 101 -12
308 -19 397 -3 41 -7 105 -10 143 -9 118 -16 211 -20 262 -4 45 -9 104 -20
235 -2 25 -4 45 -5 45 -1 0 -4 23 -5 50 -5 67 -22 239 -30 300 -2 17 -6 53 -9
80 -6 54 -16 145 -21 185 -7 53 -17 137 -20 175 -2 22 -5 40 -5 40 -3 0 -8 40
-14 105 -2 25 -6 56 -10 70 -3 14 -7 43 -10 65 -13 108 -29 226 -40 280 -2 11
-7 47 -11 80 -5 33 -9 69 -11 80 -5 37 -16 113 -28 185 -2 14 -7 43 -10 65 -4
22 -9 51 -12 65 -2 14 -7 45 -11 70 -6 50 -11 75 -13 75 -1 0 -3 16 -5 35 -2
19 -5 46 -8 60 -15 77 -21 107 -22 120 -1 8 -6 33 -10 55 -5 22 -9 51 -11 65
-1 14 -3 25 -4 25 -2 0 -4 9 -5 20 -2 11 -6 36 -9 55 -3 19 -8 53 -11 75 -4
22 -9 47 -12 55 -3 8 -7 26 -8 40 -1 14 -4 27 -5 30 -1 3 -2 13 -1 23 1 9 -2
17 -6 17 -5 0 -8 14 -7 30 1 17 -1 32 -6 35 -4 2 -6 16 -5 30 2 14 0 25 -4 25
-4 0 -8 12 -8 28 -1 15 -4 38 -7 52 -4 14 -9 40 -12 59 -3 18 -8 43 -10 55 -8
41 -17 91 -17 104 0 6 -4 12 -8 12 -5 0 -6 6 -4 13 6 16 -8 38 -26 40 -8 2
-18 5 -24 8 -23 14 -283 119 -293 119 -7 0 -12 5 -12 12 0 6 -3 9 -6 5 -3 -3
-23 3 -42 14 -20 10 -40 19 -43 19 -4 0 -33 12 -65 27 -33 15 -61 27 -64 28
-3 0 -32 13 -65 29 -33 15 -89 42 -125 59 -36 17 -67 31 -70 31 -5 -1 -182 91
-260 133 -103 57 -180 106 -180 114 0 5 -6 9 -14 9 -23 0 -61 44 -64 73 -1 15
2 28 6 28 48 8 72 5 109 -12 43 -19 94 -41 103 -44 3 -1 22 -9 44 -18 21 -9
40 -17 41 -17 2 0 25 -10 52 -22 26 -12 51 -22 56 -23 4 -2 8 -3 10 -5 1 -1 9
-3 17 -5 32 -7 115 -40 121 -48 3 -5 9 -8 13 -6 8 2 209 -63 216 -71 3 -3 10
-5 15 -5 9 -1 80 -19 110 -29 6 -2 12 -4 15 -4 3 0 23 -7 45 -15 36 -14 96
-30 103 -28 1 1 18 -5 38 -14 19 -8 38 -14 42 -13 4 1 14 -1 22 -4 24 -9 115
-32 115 -29 0 1 14 -3 30 -9 17 -6 41 -13 55 -15 14 -2 34 -6 45 -9 80 -21
104 -27 135 -32 19 -3 41 -11 48 -16 6 -6 12 -8 12 -5 0 3 26 -1 58 -8 54 -13
78 -17 155 -31 17 -3 50 -10 72 -16 22 -6 45 -12 50 -13 6 -1 12 -3 15 -4 3
-1 21 -4 40 -6 38 -4 64 -8 150 -24 30 -6 69 -13 85 -16 17 -2 41 -7 55 -10
29 -6 119 -18 138 -18 6 0 12 -3 12 -6 0 -3 15 -7 33 -7 17 -1 52 -5 77 -8 25
-4 59 -8 75 -11 17 -2 46 -7 65 -10 33 -6 57 -9 140 -19 19 -3 55 -7 80 -11
25 -3 63 -8 85 -9 22 -2 58 -6 80 -9 39 -6 83 -11 195 -22 30 -3 69 -8 85 -10
17 -2 68 -7 115 -10 47 -4 92 -8 101 -10 28 -6 194 -19 241 -19 27 -1 48 -4
48 -7 0 -3 19 -7 43 -8 23 -1 58 -4 77 -6 19 -3 67 -7 105 -10 39 -3 86 -8
105 -10 19 -2 71 -7 115 -10 44 -3 105 -7 135 -10 30 -2 96 -7 145 -10 50 -3
117 -8 150 -10 57 -4 199 -12 365 -20 391 -19 1344 -25 1715 -11 329 12 399
15 495 21 52 4 131 9 175 11 137 8 286 19 385 29 25 3 79 7 120 11 41 3 86 7
100 9 23 3 129 14 205 20 17 2 30 4 30 5 0 1 22 3 49 5 27 3 66 7 85 10 20 4
56 8 81 11 25 2 79 9 120 14 41 6 91 13 110 16 30 4 108 16 190 29 14 2 45 7
70 10 25 4 68 11 95 17 28 5 68 11 90 14 22 2 58 8 80 13 22 5 56 12 75 15 19
3 80 15 135 27 55 11 111 22 125 25 37 5 200 42 238 53 17 5 32 7 32 4 0 -3 7
0 15 7 8 7 15 10 15 7 0 -3 26 2 58 10 31 8 64 17 72 19 8 2 51 13 95 25 44
11 87 23 95 24 8 2 16 4 18 5 1 2 5 3 10 4 15 4 160 48 249 78 51 16 95 29 98
29 3 -1 18 5 34 13 16 9 31 12 35 9 3 -4 6 -2 6 4 0 6 12 13 28 16 15 3 41 11
57 18 17 7 33 12 38 11 4 -1 7 2 7 6 0 5 6 9 13 9 6 0 32 9 57 20 25 11 83 37
130 58 118 51 334 158 338 168 2 4 8 5 13 1 5 -3 9 0 9 5 0 6 5 11 11 11 6 0
31 14 56 30 24 17 48 30 54 30 5 0 9 5 9 10 0 6 7 10 15 10 8 0 15 5 15 10 0
6 5 10 11 10 6 0 16 6 23 13 7 6 28 23 46 37 47 35 139 127 181 180 36 46 95
160 105 202 25 106 28 189 11 265 -9 34 -95 193 -145 263 -56 80 -162 185
-270 267 -123 94 -422 275 -422 256 0 -4 -4 -3 -8 3 -10 16 -363 179 -407 188
-5 1 -28 10 -50 20 -59 25 -427 153 -463 161 -9 2 -46 13 -82 25 -36 12 -73
23 -82 26 -37 9 -56 14 -178 47 -121 33 -174 48 -195 52 -5 2 -28 7 -50 13
-22 6 -51 13 -65 16 -14 3 -54 12 -90 21 -36 9 -74 18 -85 20 -11 2 -63 13
-115 25 -52 11 -106 23 -120 25 -45 9 -149 30 -200 41 -14 3 -38 7 -55 10 -16
3 -79 14 -140 25 -60 11 -126 22 -145 25 -19 2 -48 7 -65 11 -32 7 -59 11
-117 17 -21 3 -46 7 -55 10 -10 3 -38 8 -63 11 -25 3 -56 7 -70 9 -14 3 -63
10 -110 16 -47 6 -96 13 -110 15 -27 4 -117 16 -165 21 -16 1 -52 5 -79 9 -72
9 -114 14 -181 21 -78 7 -120 12 -120 14 0 1 -69 8 -150 15 -27 2 -70 6 -95 9
-25 2 -81 7 -125 11 -44 3 -102 8 -130 10 -63 6 -189 15 -280 20 -38 2 -106 6
-150 9 -375 24 -816 38 -1343 40 -195 0 -354 0 -355 -1z"/>
</g>
</svg>
