<?xml version="1.0" standalone="no"?>
<!DOCTYPE svg PUBLIC "-//W3C//DTD SVG 20010904//EN"
 "http://www.w3.org/TR/2001/REC-SVG-20010904/DTD/svg10.dtd">
<svg version="1.0" xmlns="http://www.w3.org/2000/svg"
 width="1600.000000pt" height="1600.000000pt" viewBox="0 0 1600.000000 1600.000000"
 preserveAspectRatio="xMidYMid meet">
<metadata>
Created by potrace 1.14, written by Peter Selinger 2001-2017
</metadata>
<g transform="translate(0.000000,1600.000000) scale(0.100000,-0.100000)"
fill="#000000" stroke="none">
<path d="M7030 13069 c-1600 -57 -2878 -383 -3258 -831 -29 -35 -67 -92 -85
-128 -30 -60 -32 -72 -32 -165 0 -92 3 -105 32 -168 18 -38 41 -80 52 -93 73
-93 382 -1007 526 -1554 213 -813 325 -1559 366 -2435 33 -719 -70 -2157 -185
-2582 -16 -59 -20 -54 109 -154 288 -224 555 -373 795 -442 127 -37 249 -49
426 -41 153 7 154 7 154 -14 0 -14 -6 -22 -17 -22 -10 -1 -92 -5 -183 -10
-161 -9 -167 -9 -315 21 -610 122 -1021 292 -1236 510 l-69 70 0 167 c0 234
25 443 87 721 14 62 21 117 16 122 -11 11 -182 -7 -308 -32 -126 -25 -231 -57
-415 -124 -80 -29 -219 -77 -310 -106 -694 -221 -1245 -559 -1546 -950 l-45
-59 3 -223 3 -223 32 -65 c76 -155 289 -340 618 -540 134 -81 155 -90 375
-160 401 -128 839 -241 1280 -329 737 -148 1331 -220 2255 -275 361 -22 1306
-31 1670 -16 295 12 750 37 840 46 647 67 1925 226 2095 261 224 45 620 134
830 186 898 220 1511 424 1995 663 450 222 708 445 797 691 18 49 22 88 26
225 5 188 -4 247 -50 341 -42 84 -182 223 -313 310 -314 208 -923 438 -1642
619 l-132 34 -54 -19 c-30 -10 -61 -22 -68 -26 -9 -6 -1 -89 42 -384 l53 -376
-33 -67 c-60 -124 -153 -233 -196 -233 -12 0 4 78 26 130 l20 46 -25 190
c-110 833 -154 1506 -143 2184 8 477 26 765 78 1210 57 500 175 1099 314 1591
39 138 144 475 161 517 3 6 -1 12 -10 12 -8 0 -21 9 -29 21 -14 20 -16 19 -83
-31 -457 -343 -1303 -587 -2339 -675 -842 -71 -1465 -70 -3080 5 -115 5 -248
10 -295 11 l-85 2 -6 -229 c-4 -171 -10 -248 -23 -304 -17 -71 -18 -133 -12
-1055 7 -1120 -3 -1544 -64 -2667 -19 -347 -20 -359 -45 -409 l-27 -51 -61 6
c-139 16 -918 173 -933 189 -4 4 -2 96 4 204 40 680 42 1655 3 2151 -20 261
-53 599 -71 742 -72 563 -143 1008 -248 1555 l-38 199 -210 91 c-431 188 -704
340 -704 391 0 16 6 24 16 24 9 0 85 -29 168 -64 445 -188 947 -323 1566 -420
446 -70 1177 -145 1720 -178 286 -17 1209 -17 1490 0 1168 71 2016 244 2627
537 362 174 524 349 525 569 1 115 -88 275 -220 396 -365 337 -1190 632 -2252
804 -850 139 -1805 197 -2700 165z"/>
</g>
</svg>
