<?xml version="1.0" standalone="no"?>
<!DOCTYPE svg PUBLIC "-//W3C//DTD SVG 20010904//EN"
 "http://www.w3.org/TR/2001/REC-SVG-20010904/DTD/svg10.dtd">
<svg version="1.0" xmlns="http://www.w3.org/2000/svg"
 width="1800.000000pt" height="1800.000000pt" viewBox="0 0 1800.000000 1800.000000"
 preserveAspectRatio="xMidYMid meet">
<metadata>
Created by potrace 1.14, written by Peter Selinger 2001-2017
</metadata>
<g transform="translate(0.000000,1800.000000) scale(0.100000,-0.100000)"
fill="#000000" stroke="none">
<path d="M0 9000 l0 -9000 9000 0 9000 0 0 9000 0 9000 -9000 0 -9000 0 0
-9000z m2677 6801 c118 -57 372 -193 1163 -619 823 -443 1095 -584 2290 -1187
580 -293 1170 -592 1310 -665 885 -461 1248 -637 1480 -718 47 -16 98 -26 135
-26 58 -1 70 4 325 135 310 160 762 397 1755 922 1758 929 2085 1100 2835
1479 437 220 909 464 1047 540 266 147 380 195 437 184 38 -7 69 -38 84 -84
29 -86 36 -446 36 -1884 l1 -1448 -30 -29 c-26 -25 -662 -368 -1700 -916 -528
-279 -1018 -545 -1038 -564 -12 -12 220 -146 763 -443 938 -514 1588 -847
1760 -903 128 -41 180 -149 210 -440 20 -188 23 -919 11 -2080 -14 -1291 -18
-1394 -46 -1425 -11 -12 -75 -51 -145 -87 -728 -385 -1847 -987 -3180 -1714
-721 -393 -799 -433 -842 -433 -39 -1 -53 4 -75 27 l-28 27 0 1945 0 1945 25
24 c14 14 358 201 765 417 951 503 1608 853 1860 992 110 61 290 157 400 214
110 58 244 130 298 161 l97 56 -43 27 c-204 127 -625 361 -1207 671 -910 485
-1282 672 -1320 663 -93 -23 -527 -241 -955 -480 -629 -353 -1189 -655 -1645
-890 -173 -90 -360 -186 -415 -215 -84 -44 -106 -51 -140 -48 -28 4 -157 68
-420 210 -380 205 -1226 657 -1979 1057 -219 117 -399 211 -401 209 -2 -2 -8
-298 -14 -658 -12 -717 -15 -1805 -5 -1972 l7 -106 186 -105 c523 -295 2648
-1417 2684 -1417 7 0 24 -12 38 -26 l24 -26 0 -1949 0 -1949 -28 -27 c-23 -23
-36 -28 -75 -27 -41 1 -88 23 -377 178 -181 98 -523 282 -760 408 -236 127
-830 447 -1320 711 -489 264 -1592 857 -2450 1319 -868 467 -1573 852 -1590
869 l-30 29 -8 1383 c-11 1827 -11 8275 -1 8538 8 186 11 209 29 229 48 53 89
51 212 -9z"/>
</g>
</svg>
